<?xml version="1.0" encoding="UTF-8" standalone="no"?>
<!DOCTYPE svg PUBLIC "-//W3C//DTD SVG 1.1//EN" "http://www.w3.org/Graphics/SVG/1.1/DTD/svg11.dtd">
<svg xmlns="http://www.w3.org/2000/svg" version="1.1" viewBox="0.00 0.00 1433.00 1463.00">
<path fill="#000000" d="
  M 722.54 0.00
  L 737.98 0.00
  Q 752.68 1.28 767.64 0.81
  Q 768.14 0.79 768.56 1.04
  Q 769.42 1.55 770.75 1.49
  Q 775.80 1.28 781.91 1.97
  Q 784.53 2.26 787.09 2.34
  Q 789.70 2.43 792.28 2.78
  Q 794.63 3.10 796.75 3.09
  C 799.81 3.07 802.71 3.63 805.75 3.88
  Q 807.50 4.03 810.25 4.31
  Q 838.33 7.19 861.44 11.38
  Q 865.19 12.06 869.11 12.58
  Q 869.54 12.64 869.92 12.87
  C 871.26 13.68 872.91 12.68 873.94 13.74
  Q 874.27 14.07 874.73 14.01
  Q 876.65 13.77 878.27 14.66
  Q 878.75 14.93 879.29 14.81
  Q 880.64 14.50 881.67 15.25
  A 1.66 1.64 58.3 0 0 882.91 15.55
  Q 884.38 15.32 885.61 16.02
  Q 886.20 16.37 886.88 16.36
  C 887.60 16.35 888.11 16.22 888.82 16.48
  Q 892.29 17.75 895.62 18.04
  Q 896.13 18.08 896.56 18.35
  Q 897.40 18.89 898.42 18.73
  Q 899.02 18.64 899.49 19.03
  Q 900.35 19.77 901.55 19.47
  A 1.13 1.12 -30.6 0 1 902.57 19.73
  L 902.83 19.98
  Q 903.23 20.35 903.76 20.26
  Q 905.39 19.99 906.82 20.76
  Q 907.24 21.00 907.73 21.01
  C 909.31 21.03 910.31 22.07 911.79 21.81
  Q 912.27 21.73 912.62 22.06
  Q 913.60 22.96 914.88 22.52
  Q 915.31 22.38 915.58 22.73
  Q 916.29 23.69 917.47 23.36
  Q 917.97 23.22 918.44 23.47
  Q 920.38 24.48 922.70 24.90
  Q 923.78 25.09 924.71 25.45
  Q 925.71 25.83 926.77 25.76
  Q 927.28 25.73 927.61 26.11
  Q 928.12 26.70 928.93 26.50
  Q 929.47 26.36 929.84 26.78
  Q 930.57 27.60 931.67 27.22
  Q 932.02 27.10 932.38 27.22
  Q 932.64 27.30 932.81 27.51
  Q 933.13 27.89 933.62 27.94
  Q 935.97 28.15 938.04 29.12
  Q 938.84 29.50 939.71 29.53
  Q 940.41 29.56 940.90 30.07
  Q 941.47 30.67 942.25 30.38
  Q 943.05 30.09 943.64 30.57
  Q 943.94 30.81 944.30 30.93
  L 949.49 32.65
  Q 949.77 32.74 950.06 32.73
  Q 950.63 32.72 951.02 33.16
  Q 951.38 33.57 951.93 33.53
  Q 952.90 33.45 953.84 33.77
  Q 963.64 37.12 972.99 40.21
  Q 974.94 40.86 977.00 41.72
  Q 978.94 42.53 980.81 43.08
  Q 982.80 43.66 984.70 44.51
  Q 986.89 45.51 989.18 46.05
  C 990.14 46.28 990.83 47.08 991.85 47.30
  Q 992.99 47.55 994.06 48.03
  Q 997.88 49.78 1001.80 51.10
  Q 1004.09 51.86 1006.27 52.95
  Q 1007.46 53.55 1008.63 53.88
  Q 1009.91 54.24 1010.98 54.98
  Q 1011.47 55.32 1012.08 55.29
  A 1.74 1.73 -29.4 0 1 1013.09 55.57
  Q 1015.23 56.92 1017.44 57.60
  C 1020.02 58.39 1022.16 59.92 1024.86 60.88
  Q 1027.54 61.83 1029.94 63.32
  C 1030.93 63.93 1032.10 63.91 1033.18 64.46
  Q 1038.76 67.35 1044.08 69.94
  C 1044.61 70.19 1044.96 70.01 1045.48 70.27
  Q 1050.94 73.01 1056.49 75.77
  Q 1058.64 76.84 1063.33 79.50
  C 1066.61 81.36 1070.26 82.77 1073.46 84.84
  Q 1075.01 85.85 1076.66 86.68
  Q 1079.21 87.97 1081.46 89.33
  Q 1083.57 90.61 1085.85 91.61
  C 1087.25 92.22 1087.91 93.19 1089.27 93.75
  Q 1090.64 94.32 1091.87 95.06
  Q 1107.35 104.35 1117.35 110.82
  Q 1127.04 117.08 1136.99 123.78
  Q 1138.33 124.69 1139.84 125.77
  Q 1145.65 129.93 1153.04 135.30
  Q 1153.27 135.46 1153.52 135.54
  C 1154.53 135.85 1154.97 137.00 1155.92 137.58
  Q 1156.79 138.12 1157.57 138.70
  Q 1169.56 147.57 1181.98 157.57
  C 1182.75 158.18 1183.24 159.04 1184.14 159.43
  C 1185.73 160.11 1186.84 161.72 1188.25 162.78
  C 1190.50 164.48 1192.29 166.38 1194.56 167.93
  C 1196.23 169.07 1197.26 170.82 1198.98 171.90
  Q 1201.53 173.51 1203.66 176.15
  C 1204.64 177.36 1205.90 177.53 1206.93 178.56
  Q 1209.70 181.35 1212.32 183.95
  Q 1212.70 184.32 1213.17 184.53
  Q 1214.31 185.03 1215.17 185.97
  Q 1217.49 188.51 1220.05 190.80
  Q 1220.47 191.17 1220.07 191.57
  L 1011.60 400.09
  Q 1011.04 400.65 1010.67 399.95
  Q 1010.11 398.88 1009.00 398.32
  C 1006.49 397.06 1003.93 393.85 1001.98 391.81
  C 1001.32 391.11 1000.51 391.22 999.78 390.47
  C 998.04 388.70 996.27 386.63 994.11 385.32
  Q 992.70 384.46 991.57 383.00
  C 990.92 382.15 989.97 381.89 989.14 381.21
  Q 972.83 367.81 954.81 356.06
  Q 952.90 354.81 951.23 353.55
  C 949.78 352.46 948.07 352.32 946.90 350.81
  Q 946.80 350.68 946.65 350.63
  Q 946.46 350.57 946.26 350.55
  Q 945.68 350.50 945.35 350.03
  C 944.66 349.06 943.32 348.85 942.33 348.16
  Q 939.83 346.42 936.92 345.18
  C 935.88 344.73 935.42 343.79 934.35 343.40
  Q 932.63 342.79 931.19 341.77
  Q 929.72 340.74 928.16 339.96
  Q 915.71 333.76 902.77 327.24
  Q 901.72 326.71 900.61 326.41
  Q 899.42 326.09 898.38 325.50
  Q 896.91 324.67 894.98 323.98
  Q 893.53 323.47 892.21 322.78
  Q 890.68 322.00 889.47 321.57
  Q 886.86 320.64 884.16 319.43
  Q 882.34 318.62 880.35 318.12
  Q 878.37 317.62 876.70 316.48
  Q 876.22 316.16 875.66 316.27
  Q 874.90 316.41 874.49 315.79
  A 0.61 0.61 0.0 0 0 873.97 315.50
  L 873.02 315.50
  Q 872.54 315.50 872.23 315.14
  Q 871.80 314.63 871.10 314.74
  Q 870.54 314.83 870.09 314.48
  Q 868.64 313.35 866.81 313.19
  Q 866.32 313.14 866.01 312.76
  Q 865.64 312.33 865.11 312.34
  Q 864.79 312.35 864.50 312.25
  L 859.29 310.53
  Q 859.13 310.48 859.01 310.36
  Q 858.92 310.26 858.80 310.19
  Q 858.25 309.87 857.63 310.02
  Q 856.40 310.31 855.62 309.45
  A 0.79 0.78 -29.8 0 0 854.79 309.23
  Q 853.89 309.52 853.44 308.73
  Q 853.27 308.42 852.93 308.50
  Q 851.88 308.74 851.14 308.05
  Q 850.79 307.71 850.30 307.72
  L 849.41 307.73
  Q 848.90 307.74 848.43 307.52
  Q 845.95 306.34 843.29 306.06
  Q 842.79 306.00 842.48 305.62
  Q 842.15 305.23 841.67 305.35
  Q 840.32 305.68 839.38 304.85
  A 1.08 1.07 61.3 0 0 838.47 304.58
  Q 837.15 304.79 836.15 304.08
  A 1.36 1.35 59.9 0 0 835.19 303.82
  Q 833.93 303.94 832.95 303.23
  Q 832.51 302.92 831.98 303.02
  Q 830.87 303.24 830.07 302.54
  A 1.35 1.32 -32.5 0 0 828.78 302.27
  Q 827.83 302.56 827.18 301.88
  Q 826.80 301.48 826.25 301.49
  L 824.21 301.50
  A 1.34 1.30 -25.0 0 1 823.38 301.21
  Q 822.37 300.43 821.17 300.76
  A 0.84 0.84 0.0 0 1 820.37 300.55
  Q 819.43 299.63 818.05 299.93
  Q 817.23 300.11 816.49 299.71
  Q 815.05 298.93 813.36 299.18
  Q 812.82 299.27 812.41 298.90
  Q 812.25 298.76 812.04 298.72
  Q 795.15 295.75 778.85 293.85
  C 777.00 293.63 774.98 293.97 773.26 293.45
  C 770.47 292.61 767.40 292.93 764.56 292.94
  C 763.41 292.94 762.89 292.13 761.67 292.13
  Q 756.01 292.13 750.11 292.17
  A 1.14 1.10 -22.6 0 1 749.34 291.87
  L 749.10 291.64
  Q 748.75 291.33 748.29 291.33
  Q 731.21 291.33 714.23 291.33
  Q 713.99 291.33 713.78 291.44
  Q 713.57 291.55 713.42 291.73
  Q 713.07 292.15 712.52 292.15
  L 701.53 292.13
  A 0.48 0.48 0.0 0 0 701.19 292.27
  L 700.82 292.62
  Q 700.45 292.98 699.94 292.96
  C 697.59 292.90 693.62 292.50 691.45 293.32
  Q 689.89 293.91 687.98 293.74
  C 685.97 293.55 684.21 294.09 682.26 294.32
  Q 669.75 295.78 659.15 297.74
  Q 656.19 298.28 653.32 298.50
  Q 652.78 298.54 652.37 298.91
  Q 651.91 299.33 651.28 299.16
  Q 650.65 298.98 650.08 299.30
  Q 648.57 300.13 646.88 299.96
  Q 646.28 299.90 645.77 300.21
  Q 644.43 301.04 642.72 300.70
  Q 642.22 300.60 641.88 300.97
  Q 641.14 301.76 639.97 301.50
  Q 639.28 301.35 638.72 301.78
  Q 637.70 302.58 636.24 302.23
  A 1.57 1.57 0.0 0 0 634.85 302.56
  Q 634.08 303.23 633.03 303.02
  Q 632.46 302.91 631.99 303.24
  Q 631.04 303.90 629.87 303.81
  Q 629.24 303.76 628.71 304.12
  Q 627.59 304.88 626.23 304.54
  Q 625.68 304.40 625.48 304.92
  Q 625.32 305.34 624.75 305.42
  A 0.77 0.74 50.5 0 1 624.32 305.37
  Q 623.55 305.04 623.11 305.73
  Q 622.82 306.18 622.29 306.21
  Q 621.77 306.24 621.27 306.09
  Q 620.67 305.91 620.21 306.33
  Q 619.18 307.28 617.77 306.94
  A 0.91 0.88 -63.3 0 0 616.87 307.25
  Q 616.35 307.88 615.51 307.76
  A 1.11 1.08 29.2 0 0 614.66 307.99
  Q 613.66 308.82 612.20 308.45
  Q 611.72 308.33 611.48 308.77
  Q 611.40 308.93 611.26 309.05
  Q 610.80 309.44 610.24 309.23
  Q 609.68 309.02 609.29 309.46
  A 0.85 0.83 10.2 0 1 608.98 309.67
  L 603.52 311.51
  Q 603.20 311.62 602.87 311.61
  Q 602.17 311.61 601.79 312.25
  Q 601.57 312.62 601.18 312.46
  Q 600.42 312.16 599.81 312.65
  Q 599.44 312.96 598.98 313.09
  L 595.08 314.20
  Q 594.96 314.23 594.91 314.34
  Q 594.86 314.46 594.77 314.56
  Q 594.46 314.90 594.03 314.77
  Q 593.14 314.51 592.62 315.21
  Q 592.28 315.66 591.73 315.50
  Q 590.86 315.24 590.38 315.93
  Q 590.01 316.44 589.41 316.24
  Q 588.68 315.99 588.20 316.53
  Q 587.86 316.91 587.36 316.98
  Q 585.38 317.25 583.83 318.46
  A 1.05 1.03 31.4 0 1 582.97 318.66
  Q 582.18 318.49 581.66 319.11
  Q 581.33 319.51 580.80 319.46
  Q 579.90 319.37 579.19 319.84
  Q 577.25 321.13 575.17 321.72
  Q 572.83 322.39 570.82 323.35
  C 567.95 324.72 565.01 325.68 562.25 327.25
  C 561.06 327.92 559.88 327.86 558.78 328.54
  Q 557.84 329.12 556.86 329.56
  Q 553.90 330.89 551.30 332.36
  C 550.59 332.77 550.04 332.58 549.32 332.92
  Q 542.38 336.15 537.81 338.80
  Q 534.13 340.94 530.84 342.52
  Q 528.95 343.43 527.15 344.61
  Q 525.13 345.94 523.02 346.84
  Q 521.65 347.42 520.42 348.37
  C 519.53 349.06 517.40 349.69 516.88 350.38
  Q 516.60 350.77 516.14 351.01
  Q 510.77 353.91 506.79 356.65
  Q 505.83 357.31 504.88 357.85
  Q 503.88 358.42 502.91 359.05
  Q 498.80 361.72 494.43 364.67
  Q 490.84 367.09 487.52 369.49
  Q 487.04 369.84 486.59 370.15
  Q 477.89 376.21 467.00 385.03
  Q 462.26 388.88 458.94 391.41
  C 457.19 392.75 455.99 394.53 454.12 395.71
  C 452.32 396.84 450.97 398.41 449.52 399.91
  A 1.55 1.47 -73.2 0 1 448.82 400.31
  C 448.37 400.42 448.10 400.53 447.77 400.86
  Q 443.98 404.64 440.20 408.42
  C 439.56 409.07 438.76 409.04 438.26 409.55
  Q 430.04 417.86 421.74 426.10
  Q 421.54 426.29 421.43 426.53
  Q 421.31 426.76 421.24 427.03
  Q 421.11 427.53 420.75 427.90
  Q 418.19 430.46 415.69 432.87
  Q 414.44 434.07 412.45 436.70
  C 410.84 438.81 408.71 440.32 407.19 442.53
  Q 406.38 443.71 405.25 444.98
  Q 393.81 457.94 379.62 478.08
  Q 378.90 479.09 378.13 480.05
  Q 377.40 480.95 376.78 482.02
  Q 375.86 483.62 374.82 485.08
  Q 371.37 489.87 368.40 495.15
  C 367.63 496.51 366.58 497.46 365.91 498.85
  Q 364.54 501.70 362.35 504.26
  Q 362.04 504.62 361.92 505.08
  C 361.52 506.71 360.47 507.48 359.73 508.87
  Q 357.40 513.23 354.96 517.50
  Q 352.51 521.76 350.32 526.16
  Q 345.41 535.98 340.33 546.10
  Q 339.40 547.95 338.67 549.85
  Q 337.94 551.74 337.03 553.62
  Q 336.09 555.54 335.33 557.50
  Q 334.55 559.52 333.54 561.20
  Q 333.22 561.75 333.21 562.43
  Q 333.21 562.95 332.91 563.38
  Q 332.12 564.51 331.83 565.82
  C 331.45 567.47 330.36 568.60 330.15 570.35
  A 1.43 1.43 0.0 0 1 329.82 571.11
  Q 329.15 571.90 328.92 572.95
  Q 328.69 574.00 328.20 575.03
  Q 326.43 578.82 325.46 582.89
  C 325.16 584.12 324.25 584.74 324.02 585.89
  Q 323.80 586.97 323.41 587.97
  Q 322.74 589.73 322.36 591.51
  Q 322.26 591.99 321.84 592.26
  Q 321.49 592.50 321.70 592.96
  A 0.44 0.43 44.0 0 1 321.71 593.26
  L 320.20 597.48
  Q 320.06 597.86 320.08 598.27
  Q 320.12 598.84 319.65 599.14
  A 0.86 0.86 0.0 0 0 319.28 600.06
  Q 319.48 600.88 318.87 601.46
  Q 318.39 601.94 318.52 602.60
  Q 318.76 603.87 317.93 604.85
  Q 317.83 604.98 317.79 605.14
  Q 317.75 605.31 317.77 605.48
  Q 317.83 605.96 317.61 606.40
  Q 316.72 608.18 316.34 610.29
  Q 316.03 611.99 315.38 613.62
  Q 314.69 615.36 314.53 617.30
  A 0.62 0.61 -16.0 0 1 314.27 617.76
  Q 314.06 617.91 313.97 618.15
  C 313.55 619.24 314.23 620.08 313.31 621.12
  Q 312.98 621.49 313.05 621.99
  Q 313.17 622.78 312.62 623.35
  Q 312.20 623.78 312.30 624.37
  Q 312.52 625.66 311.73 626.58
  Q 311.39 626.96 311.51 627.46
  Q 311.77 628.62 311.05 629.54
  Q 310.69 630.00 310.76 630.58
  Q 310.89 631.57 310.41 632.41
  C 309.86 633.35 309.97 634.21 309.95 635.24
  Q 309.94 635.74 309.69 636.17
  Q 309.08 637.24 309.20 638.50
  Q 309.25 639.02 308.91 639.41
  L 308.70 639.64
  Q 308.29 640.11 308.41 640.72
  Q 308.71 642.35 307.91 643.72
  Q 307.63 644.19 307.63 644.74
  C 307.64 645.69 307.74 646.20 307.38 647.14
  Q 306.03 650.67 305.97 654.46
  Q 305.96 654.94 305.63 655.28
  Q 305.16 655.78 305.26 656.46
  Q 305.44 657.55 305.11 658.47
  Q 304.79 659.34 304.66 660.23
  Q 302.50 674.54 300.73 688.92
  Q 300.57 690.22 300.64 691.33
  Q 300.75 693.08 300.30 694.47
  Q 299.69 696.40 299.81 698.12
  Q 300.03 701.43 299.57 704.20
  Q 299.10 707.03 299.05 710.02
  Q 298.96 716.21 299.00 722.50
  Q 299.00 723.28 298.58 723.93
  A 1.86 1.80 -29.2 0 0 298.28 724.93
  Q 298.26 731.48 298.27 738.12
  Q 298.27 738.50 298.44 738.84
  C 298.77 739.48 299.05 739.75 299.05 740.55
  Q 299.01 746.16 299.03 752.20
  Q 299.04 754.13 299.64 759.26
  Q 300.05 762.73 299.81 766.39
  C 299.75 767.28 300.32 767.98 300.40 768.92
  Q 302.18 788.16 305.42 806.97
  C 305.60 807.99 306.21 808.53 306.07 809.72
  Q 305.95 810.73 306.22 811.77
  Q 306.86 814.29 307.55 816.51
  Q 307.72 817.04 307.62 817.58
  Q 307.41 818.75 308.11 819.62
  Q 308.44 820.03 308.43 820.55
  L 308.42 822.49
  Q 308.42 823.08 308.82 823.51
  Q 309.38 824.13 309.21 824.97
  Q 309.09 825.54 309.37 826.05
  Q 310.16 827.46 309.99 829.10
  A 1.88 1.85 31.9 0 0 310.27 830.27
  Q 310.86 831.19 310.77 832.36
  A 1.71 1.70 28.6 0 0 311.12 833.53
  Q 311.77 834.37 311.49 835.44
  Q 311.34 836.04 311.77 836.48
  Q 312.58 837.34 312.27 838.59
  A 1.16 1.15 -63.3 0 0 312.65 839.75
  Q 313.15 840.17 313.05 840.83
  A 1.50 1.48 -60.8 0 0 313.38 842.03
  Q 314.09 842.86 313.83 843.99
  Q 313.71 844.53 314.07 844.94
  Q 314.90 845.90 314.62 847.19
  Q 314.49 847.79 314.95 848.20
  Q 315.63 848.80 315.41 849.73
  Q 315.28 850.26 315.71 850.61
  Q 316.42 851.17 316.24 852.14
  A 1.99 1.89 -50.5 0 0 316.31 853.11
  Q 317.33 856.08 318.40 859.08
  C 318.61 859.68 318.48 860.10 318.50 860.70
  Q 318.52 861.23 318.91 861.59
  Q 319.53 862.17 319.27 863.06
  Q 319.22 863.22 319.26 863.38
  Q 319.31 863.56 319.47 863.66
  Q 319.81 863.86 319.89 864.23
  Q 320.44 866.53 321.42 868.81
  Q 321.84 869.76 321.60 870.74
  Q 321.48 871.26 321.91 871.57
  Q 322.67 872.10 322.41 872.98
  A 0.91 0.90 27.5 0 0 322.72 873.94
  Q 323.30 874.40 323.25 875.16
  Q 323.21 875.72 323.48 876.21
  Q 324.95 878.94 325.57 881.85
  Q 325.67 882.35 326.03 882.72
  Q 326.46 883.17 326.29 883.79
  Q 326.17 884.26 326.46 884.64
  Q 327.43 885.94 327.86 887.56
  Q 328.60 890.33 329.80 892.69
  Q 330.13 893.35 330.16 894.01
  Q 330.18 894.51 330.48 894.91
  Q 331.27 895.94 331.51 897.15
  Q 331.75 898.30 332.32 899.29
  Q 333.79 901.86 334.46 904.42
  C 334.81 905.75 335.88 906.46 336.19 907.75
  Q 336.98 910.95 338.77 913.57
  C 339.49 914.62 339.35 915.71 339.89 916.79
  Q 345.87 928.79 351.63 940.22
  Q 352.14 941.24 353.61 943.60
  C 354.76 945.44 355.40 947.49 356.71 949.28
  C 357.92 950.93 358.78 952.98 359.84 954.78
  Q 361.69 957.90 363.58 960.95
  Q 371.08 973.04 380.49 986.89
  Q 380.85 987.42 381.31 987.82
  C 382.11 988.51 382.29 989.33 382.88 990.14
  Q 391.78 1002.47 401.34 1014.20
  C 401.91 1014.90 402.88 1015.48 403.22 1016.25
  C 403.97 1017.94 405.80 1019.47 407.17 1020.66
  C 407.98 1021.37 407.96 1022.22 408.64 1022.94
  Q 410.74 1025.20 413.13 1027.47
  Q 413.30 1027.63 413.39 1027.86
  Q 413.47 1028.06 413.51 1028.27
  Q 413.62 1028.80 414.00 1029.17
  Q 419.34 1034.43 424.23 1039.40
  Q 424.99 1040.17 425.50 1041.19
  Q 425.79 1041.76 426.20 1042.16
  Q 429.92 1045.81 433.64 1049.55
  C 434.27 1050.19 435.12 1050.25 435.78 1050.91
  Q 439.87 1054.99 444.49 1059.67
  Q 445.73 1060.92 447.25 1061.92
  C 449.52 1063.43 450.96 1065.72 453.29 1067.27
  C 455.34 1068.63 457.08 1071.46 459.28 1072.28
  Q 459.79 1072.47 460.13 1072.90
  Q 461.29 1074.33 462.76 1075.40
  Q 464.23 1076.49 465.68 1077.63
  Q 467.35 1078.94 468.99 1080.25
  Q 487.86 1095.28 509.52 1108.62
  C 510.74 1109.37 511.38 1110.37 512.93 1110.67
  A 1.78 1.71 -16.4 0 1 513.85 1111.15
  Q 515.10 1112.44 516.81 1113.00
  Q 517.27 1113.15 517.63 1113.46
  Q 518.49 1114.21 519.49 1114.75
  Q 523.44 1116.86 527.96 1119.45
  Q 532.19 1121.87 536.49 1124.05
  Q 547.22 1129.47 557.99 1134.81
  Q 558.43 1135.03 558.93 1135.00
  Q 559.33 1134.98 559.49 1135.09
  Q 562.60 1137.05 566.07 1138.18
  C 567.10 1138.52 567.89 1139.23 568.94 1139.50
  Q 570.00 1139.76 571.02 1140.18
  Q 574.98 1141.80 579.03 1143.43
  Q 582.87 1144.98 586.53 1146.47
  Q 587.04 1146.68 587.60 1146.67
  Q 588.13 1146.66 588.51 1146.99
  Q 588.95 1147.37 589.54 1147.44
  Q 591.18 1147.62 592.61 1148.69
  Q 593.07 1149.03 593.63 1148.98
  Q 594.30 1148.92 594.79 1149.29
  Q 595.06 1149.49 595.39 1149.60
  L 600.45 1151.24
  Q 600.73 1151.33 601.02 1151.31
  Q 601.50 1151.26 601.82 1151.64
  Q 602.19 1152.08 602.75 1152.18
  Q 605.01 1152.61 607.35 1153.60
  Q 608.13 1153.93 608.98 1153.74
  A 0.72 0.72 0.0 0 1 609.76 1154.07
  Q 610.09 1154.62 610.74 1154.54
  Q 611.23 1154.48 611.70 1154.66
  Q 615.13 1156.01 618.97 1156.79
  Q 619.46 1156.89 619.84 1157.20
  L 620.18 1157.48
  Q 620.68 1157.89 621.29 1157.67
  Q 622.54 1157.22 623.31 1158.22
  Q 623.68 1158.69 624.23 1158.47
  Q 625.31 1158.04 626.16 1158.78
  A 1.70 1.69 61.8 0 0 627.53 1159.20
  Q 628.50 1159.06 629.29 1159.60
  A 2.13 2.12 58.9 0 0 630.77 1159.97
  Q 631.79 1159.85 632.62 1160.46
  Q 633.20 1160.88 633.90 1160.75
  Q 634.82 1160.57 635.52 1161.17
  Q 635.95 1161.52 636.49 1161.49
  Q 637.36 1161.45 638.14 1161.61
  Q 642.24 1162.49 646.42 1163.72
  C 647.59 1164.07 648.70 1163.58 649.80 1164.02
  Q 650.66 1164.36 651.59 1164.54
  Q 673.25 1168.63 688.24 1169.95
  Q 690.15 1170.12 692.26 1170.43
  Q 694.23 1170.72 696.27 1170.78
  C 697.85 1170.83 701.22 1170.55 702.59 1171.26
  Q 702.94 1171.44 703.42 1171.45
  Q 710.19 1171.66 717.22 1171.80
  C 718.32 1171.82 719.29 1172.16 720.39 1172.20
  Q 731.68 1172.64 743.37 1172.23
  C 744.64 1172.18 745.78 1171.85 747.03 1171.81
  Q 754.89 1171.58 762.26 1171.69
  Q 762.80 1171.70 763.18 1171.33
  L 763.40 1171.10
  A 0.83 0.82 -66.7 0 1 763.97 1170.87
  L 773.91 1170.86
  Q 774.34 1170.85 774.70 1170.62
  C 776.43 1169.52 779.81 1170.22 781.99 1169.88
  Q 784.00 1169.56 786.03 1169.34
  Q 806.68 1167.11 825.58 1163.40
  Q 827.62 1163.00 829.18 1163.03
  Q 829.61 1163.03 829.97 1162.80
  Q 830.96 1162.14 832.20 1162.23
  Q 832.74 1162.27 833.18 1161.96
  C 834.53 1161.01 835.95 1162.00 837.36 1160.96
  Q 837.75 1160.67 838.23 1160.76
  Q 839.40 1160.97 840.35 1160.29
  Q 840.78 1159.98 841.31 1159.98
  L 843.02 1159.98
  Q 843.57 1159.98 844.03 1159.68
  Q 844.94 1159.08 846.01 1159.16
  Q 846.55 1159.20 847.00 1158.92
  Q 847.96 1158.31 849.12 1158.39
  Q 849.70 1158.43 850.19 1158.14
  C 851.45 1157.38 852.01 1157.93 853.12 1157.58
  Q 853.31 1157.52 853.43 1157.37
  Q 853.75 1156.94 854.28 1156.90
  Q 856.79 1156.73 859.27 1155.52
  Q 860.02 1155.15 860.79 1155.29
  Q 861.25 1155.37 861.66 1155.15
  Q 863.21 1154.32 865.02 1153.98
  Q 867.87 1153.45 870.50 1152.29
  Q 871.03 1152.06 871.59 1152.19
  Q 871.98 1152.27 872.37 1152.19
  Q 872.79 1152.10 873.07 1151.77
  Q 873.44 1151.34 874.02 1151.35
  Q 874.48 1151.35 874.90 1151.20
  Q 881.45 1148.89 888.13 1146.78
  Q 889.39 1146.38 890.58 1145.77
  Q 891.75 1145.17 893.06 1144.81
  Q 895.01 1144.27 896.83 1143.42
  Q 898.67 1142.56 900.69 1142.11
  C 901.97 1141.84 902.71 1140.92 903.95 1140.66
  Q 905.27 1140.39 906.47 1139.76
  C 908.01 1138.95 909.44 1138.71 911.04 1137.81
  Q 912.37 1137.06 913.63 1136.67
  Q 916.41 1135.82 919.78 1133.74
  Q 920.32 1133.41 920.89 1133.47
  Q 921.40 1133.51 921.85 1133.28
  L 953.67 1117.09
  A 1.33 1.31 2.7 0 0 954.17 1116.64
  Q 954.67 1115.89 955.50 1115.53
  Q 957.58 1114.61 959.87 1113.23
  Q 978.55 1102.00 994.95 1089.67
  Q 998.30 1087.16 1002.00 1084.16
  Q 1005.59 1081.26 1009.17 1078.51
  C 1010.67 1077.37 1011.78 1075.74 1013.29 1074.77
  Q 1014.97 1073.70 1016.42 1072.25
  Q 1018.09 1070.57 1019.73 1068.86
  C 1020.53 1068.03 1021.41 1068.04 1022.27 1067.17
  Q 1032.46 1056.94 1042.58 1046.84
  Q 1042.86 1046.56 1042.95 1046.17
  Q 1042.99 1046.00 1043.05 1045.82
  Q 1043.17 1045.46 1043.43 1045.20
  Q 1045.93 1042.69 1048.51 1040.15
  C 1049.02 1039.65 1049.14 1039.26 1049.36 1038.61
  Q 1049.56 1038.06 1050.03 1037.71
  Q 1051.84 1036.42 1052.83 1034.66
  C 1053.89 1032.78 1055.70 1031.78 1056.73 1029.87
  C 1057.40 1028.64 1058.62 1028.00 1059.32 1026.86
  Q 1060.01 1025.74 1060.81 1024.74
  Q 1062.79 1022.29 1064.52 1019.72
  C 1065.24 1018.65 1066.07 1018.09 1066.71 1017.01
  Q 1067.93 1014.95 1069.43 1013.07
  Q 1070.91 1011.22 1072.18 1009.19
  Q 1075.05 1004.64 1078.33 999.99
  A 13.67 12.10 -69.1 0 0 1079.35 998.36
  Q 1082.48 992.71 1085.86 987.31
  C 1086.59 986.14 1086.81 984.94 1087.69 983.88
  Q 1088.56 982.85 1089.12 981.70
  Q 1091.16 977.47 1093.35 973.18
  Q 1093.79 972.32 1094.43 971.57
  C 1095.76 970.02 1095.66 968.15 1096.59 966.50
  Q 1099.77 960.90 1101.23 957.07
  Q 1101.81 955.56 1102.48 954.19
  Q 1103.22 952.69 1103.70 951.18
  Q 1104.29 949.30 1105.53 947.35
  C 1105.84 946.85 1105.93 946.42 1105.95 945.84
  Q 1105.98 945.31 1106.31 944.89
  Q 1107.32 943.61 1107.46 941.98
  Q 1107.50 941.49 1107.81 941.10
  Q 1108.20 940.61 1108.39 940.06
  Q 1109.37 937.28 1110.42 934.13
  Q 1110.95 932.52 1111.81 930.68
  Q 1112.59 929.01 1112.90 927.18
  Q 1112.98 926.67 1113.31 926.26
  Q 1113.86 925.55 1113.72 924.71
  Q 1113.63 924.21 1114.04 923.90
  Q 1114.71 923.39 1114.52 922.53
  Q 1114.40 922.00 1114.58 921.49
  L 1116.66 915.43
  Q 1116.85 914.88 1116.75 914.31
  Q 1116.59 913.40 1117.31 912.88
  A 0.91 0.90 -28.4 0 0 1117.63 911.82
  Q 1117.38 911.19 1117.87 910.77
  Q 1118.29 910.42 1118.32 909.88
  Q 1118.48 907.39 1119.77 904.76
  Q 1120.05 904.20 1119.91 903.58
  Q 1119.70 902.61 1120.39 901.99
  Q 1120.94 901.50 1120.72 900.81
  Q 1120.37 899.72 1121.15 898.93
  Q 1121.54 898.54 1121.52 897.99
  L 1121.45 896.03
  Q 1121.44 895.52 1121.80 895.17
  Q 1122.57 894.41 1122.20 893.25
  Q 1122.04 892.73 1122.41 892.35
  Q 1123.35 891.39 1123.00 889.81
  A 2.00 1.99 -35.0 0 1 1123.27 888.30
  Q 1124.13 886.92 1123.78 885.09
  Q 1123.68 884.61 1124.05 884.30
  Q 1124.94 883.53 1124.59 882.40
  Q 1124.42 881.83 1123.83 881.83
  L 731.68 881.83
  A 0.40 0.40 0.0 0 1 731.28 881.43
  L 731.28 598.50
  A 0.23 0.23 0.0 0 1 731.51 598.27
  L 1419.23 598.27
  Q 1419.94 598.27 1419.76 598.96
  Q 1419.53 599.86 1420.16 600.58
  Q 1420.69 601.19 1420.55 601.99
  Q 1420.24 603.66 1420.87 605.08
  C 1421.50 606.47 1421.30 607.76 1421.28 609.20
  A 0.73 0.70 -69.5 0 0 1421.51 609.73
  L 1421.75 609.94
  Q 1422.04 610.20 1422.05 610.59
  C 1422.08 612.05 1421.90 613.32 1422.49 614.71
  Q 1423.09 616.15 1422.87 617.88
  Q 1422.81 618.33 1422.98 618.75
  Q 1423.05 618.93 1423.14 619.10
  Q 1423.32 619.41 1423.38 619.77
  Q 1426.69 641.19 1428.61 661.89
  Q 1428.70 662.79 1428.96 663.63
  C 1429.57 665.59 1428.84 668.09 1429.42 670.27
  Q 1429.93 672.19 1429.91 674.00
  Q 1429.89 676.49 1429.88 678.96
  Q 1429.88 679.51 1430.18 679.97
  Q 1430.93 681.11 1430.76 682.66
  Q 1430.42 685.62 1430.84 688.30
  Q 1431.44 692.05 1431.44 693.76
  Q 1431.47 698.26 1431.49 702.77
  Q 1431.50 703.13 1431.75 703.39
  L 1431.96 703.60
  Q 1432.24 703.89 1432.22 704.30
  Q 1431.69 713.69 1433.00 722.61
  L 1433.00 774.83
  Q 1431.71 784.66 1432.20 794.93
  A 0.37 0.35 -22.2 0 1 1432.06 795.23
  L 1431.82 795.42
  Q 1431.47 795.70 1431.46 796.16
  L 1431.46 807.79
  Q 1431.46 808.15 1431.26 808.44
  Q 1431.18 808.54 1431.08 808.63
  Q 1430.67 808.98 1430.68 809.52
  Q 1430.70 813.79 1430.68 817.87
  Q 1430.67 818.16 1430.54 818.41
  Q 1430.40 818.65 1430.22 818.86
  Q 1429.88 819.24 1429.88 819.75
  L 1429.90 826.86
  A 1.86 1.84 60.3 0 1 1429.65 827.79
  C 1428.60 829.59 1429.10 833.56 1429.08 835.73
  Q 1429.08 836.21 1428.80 836.61
  C 1427.75 838.08 1428.52 841.23 1428.07 843.10
  Q 1427.60 845.05 1427.59 846.83
  Q 1427.58 848.80 1427.17 850.70
  C 1426.72 852.77 1426.70 854.84 1426.44 856.98
  Q 1423.79 878.39 1420.10 898.96
  Q 1419.06 904.79 1418.13 910.33
  Q 1417.98 911.22 1417.64 912.07
  Q 1417.31 912.88 1417.43 913.79
  Q 1417.52 914.51 1417.16 915.14
  Q 1416.44 916.40 1416.67 917.90
  Q 1416.76 918.41 1416.46 918.85
  Q 1415.58 920.17 1415.89 921.80
  A 1.35 1.33 58.8 0 1 1415.64 922.86
  Q 1414.91 923.79 1415.05 925.06
  Q 1415.12 925.70 1414.76 926.23
  Q 1414.01 927.35 1414.31 928.85
  A 1.51 1.51 0.0 0 1 1414.01 930.09
  C 1412.99 931.37 1413.89 932.15 1413.52 933.44
  Q 1413.40 933.85 1413.07 934.10
  Q 1412.56 934.48 1412.72 935.09
  Q 1413.06 936.34 1412.27 937.20
  Q 1411.96 937.54 1412.02 938.00
  Q 1412.21 939.37 1411.45 940.48
  Q 1411.12 940.95 1411.23 941.52
  Q 1411.44 942.66 1410.71 943.51
  Q 1410.28 944.00 1410.41 944.64
  Q 1410.78 946.41 1409.82 947.60
  Q 1409.48 948.01 1409.63 948.52
  Q 1409.85 949.25 1409.50 949.90
  Q 1409.11 950.62 1408.93 951.47
  Q 1408.28 954.55 1407.41 957.49
  Q 1407.25 958.04 1407.32 958.61
  Q 1407.40 959.33 1406.87 959.76
  Q 1406.45 960.09 1406.55 960.62
  Q 1406.72 961.57 1406.05 962.20
  Q 1405.53 962.69 1405.72 963.38
  Q 1405.97 964.27 1405.44 965.02
  Q 1405.15 965.42 1405.09 965.91
  Q 1404.76 968.53 1403.62 970.97
  Q 1403.40 971.43 1403.42 971.94
  L 1403.44 972.95
  Q 1403.45 973.40 1403.11 973.70
  Q 1402.48 974.27 1402.59 975.08
  Q 1402.67 975.68 1402.48 976.25
  L 1400.44 982.17
  Q 1400.23 982.78 1400.30 983.43
  Q 1400.39 984.33 1399.72 984.86
  Q 1399.52 985.02 1399.52 985.28
  L 1399.52 985.89
  Q 1399.52 986.19 1399.39 986.46
  Q 1398.57 988.14 1398.10 990.26
  Q 1397.68 992.20 1397.03 994.12
  Q 1392.41 1007.88 1388.06 1021.00
  Q 1387.89 1021.53 1386.54 1024.76
  Q 1385.74 1026.67 1385.38 1028.75
  Q 1385.37 1028.80 1385.34 1028.83
  L 1385.05 1029.19
  Q 1384.82 1029.48 1384.77 1029.84
  Q 1384.54 1031.66 1383.35 1033.23
  Q 1382.97 1033.73 1383.12 1034.34
  Q 1383.23 1034.78 1382.95 1035.14
  Q 1382.73 1035.43 1382.61 1035.78
  Q 1381.56 1039.00 1379.81 1042.72
  Q 1379.31 1043.78 1379.10 1044.86
  Q 1378.85 1046.08 1378.06 1046.98
  Q 1377.79 1047.29 1377.75 1047.70
  C 1377.61 1049.42 1376.55 1050.55 1376.09 1052.19
  Q 1375.64 1053.77 1374.80 1055.20
  C 1373.82 1056.85 1373.66 1058.71 1372.57 1060.35
  A 1.75 1.73 64.5 0 0 1372.26 1061.24
  C 1372.23 1061.76 1372.22 1062.12 1371.94 1062.58
  Q 1370.44 1065.05 1369.41 1067.73
  Q 1368.63 1069.77 1367.72 1071.61
  Q 1366.78 1073.52 1366.01 1075.43
  Q 1364.30 1079.70 1361.62 1084.55
  C 1361.25 1085.22 1361.37 1085.95 1360.97 1086.73
  Q 1354.44 1099.80 1347.92 1112.84
  Q 1347.73 1113.20 1347.44 1113.51
  Q 1346.97 1114.02 1346.75 1114.51
  Q 1344.98 1118.37 1342.82 1121.87
  Q 1341.47 1124.05 1340.55 1126.04
  Q 1339.67 1127.94 1338.43 1129.74
  Q 1337.11 1131.63 1336.33 1133.81
  Q 1336.18 1134.23 1335.84 1134.51
  Q 1335.61 1134.70 1335.47 1134.94
  Q 1331.55 1141.93 1327.20 1149.01
  Q 1324.48 1153.45 1321.60 1157.91
  Q 1313.82 1169.99 1305.59 1181.97
  Q 1304.51 1183.54 1303.37 1185.03
  Q 1302.21 1186.55 1301.32 1188.26
  C 1300.82 1189.22 1299.91 1189.70 1299.31 1190.66
  Q 1297.52 1193.53 1295.52 1196.21
  Q 1282.55 1213.60 1268.76 1229.73
  Q 1267.94 1230.68 1267.21 1231.76
  C 1266.16 1233.34 1264.61 1234.38 1263.40 1236.06
  Q 1261.05 1239.33 1257.87 1241.88
  Q 1257.33 1242.31 1256.99 1243.37
  Q 1256.83 1243.87 1256.45 1244.24
  L 1249.72 1250.97
  Q 1249.30 1251.39 1249.14 1251.97
  Q 1249.00 1252.51 1248.60 1252.90
  Q 1233.05 1268.42 1217.49 1284.00
  C 1216.82 1284.66 1216.17 1284.56 1215.50 1285.22
  Q 1212.24 1288.43 1208.85 1291.91
  Q 1208.54 1292.23 1208.09 1292.32
  C 1207.63 1292.42 1207.38 1292.55 1207.05 1292.88
  Q 1205.35 1294.58 1203.65 1296.28
  Q 1201.98 1297.94 1200.12 1299.26
  C 1198.50 1300.41 1197.04 1302.68 1195.32 1303.46
  C 1193.98 1304.07 1192.92 1305.49 1191.75 1306.47
  Q 1171.63 1323.21 1149.52 1338.81
  Q 1147.93 1339.93 1146.34 1340.97
  Q 1144.75 1341.99 1143.20 1343.16
  Q 1141.40 1344.52 1139.49 1345.69
  Q 1136.88 1347.28 1135.71 1348.08
  Q 1128.25 1353.24 1120.48 1357.92
  C 1119.31 1358.63 1118.79 1359.56 1117.30 1359.87
  Q 1116.76 1359.99 1116.36 1360.36
  Q 1115.67 1361.00 1114.88 1361.46
  Q 1108.08 1365.45 1101.61 1369.37
  C 1100.36 1370.12 1099.17 1370.20 1098.13 1371.39
  Q 1097.78 1371.79 1097.28 1371.97
  Q 1095.43 1372.63 1093.84 1373.72
  Q 1092.25 1374.81 1090.51 1375.68
  Q 1087.97 1376.98 1085.41 1378.17
  C 1084.77 1378.46 1084.35 1379.16 1083.89 1379.40
  Q 1068.37 1387.12 1052.88 1394.88
  Q 1052.23 1395.21 1051.72 1395.27
  Q 1051.16 1395.34 1050.66 1395.59
  Q 1047.67 1397.11 1044.68 1398.60
  Q 1043.00 1399.43 1041.15 1400.11
  Q 1039.28 1400.81 1037.55 1401.76
  C 1035.20 1403.05 1032.80 1403.42 1030.49 1405.03
  Q 1030.01 1405.37 1029.42 1405.30
  Q 1028.65 1405.19 1028.04 1405.69
  Q 1027.72 1405.95 1027.34 1406.10
  L 1012.52 1412.24
  Q 1012.26 1412.35 1011.97 1412.29
  Q 1011.78 1412.25 1011.61 1412.33
  C 1010.87 1412.63 1010.67 1413.05 1009.84 1413.18
  Q 1008.07 1413.44 1006.82 1414.46
  Q 1006.41 1414.80 1005.88 1414.72
  Q 1005.19 1414.61 1004.71 1415.08
  Q 1004.28 1415.51 1003.66 1415.49
  C 1002.40 1415.46 1001.29 1416.52 1000.08 1416.92
  Q 998.43 1417.45 996.73 1417.91
  Q 996.23 1418.04 995.85 1418.40
  Q 995.51 1418.72 995.04 1418.67
  Q 994.53 1418.61 994.07 1418.83
  Q 990.02 1420.82 985.73 1421.79
  A 0.83 0.79 -72.9 0 0 985.30 1422.03
  L 985.08 1422.26
  Q 984.65 1422.69 984.08 1422.51
  Q 983.43 1422.30 982.97 1422.76
  Q 982.61 1423.11 982.12 1423.23
  Q 979.88 1423.74 977.60 1424.69
  Q 977.20 1424.86 976.76 1424.81
  Q 976.11 1424.73 975.79 1425.27
  A 0.74 0.72 20.7 0 1 975.02 1425.61
  Q 974.05 1425.42 973.38 1426.12
  Q 972.96 1426.56 972.39 1426.32
  Q 972.24 1426.25 972.08 1426.26
  Q 971.58 1426.31 971.28 1426.70
  Q 970.85 1427.26 970.12 1427.20
  Q 969.57 1427.15 969.06 1427.39
  Q 966.62 1428.58 964.10 1428.82
  Q 963.60 1428.86 963.26 1429.23
  Q 962.81 1429.71 962.21 1429.47
  Q 961.63 1429.23 961.28 1429.74
  Q 960.91 1430.26 960.30 1430.25
  Q 959.75 1430.23 959.22 1430.44
  Q 957.39 1431.16 955.49 1431.74
  Q 954.97 1431.90 954.43 1431.81
  Q 953.72 1431.70 953.30 1432.26
  Q 952.97 1432.69 952.42 1432.66
  L 951.79 1432.62
  A 1.19 1.19 0.0 0 0 950.82 1433.04
  Q 950.21 1433.75 949.32 1433.42
  Q 948.82 1433.24 948.35 1433.48
  Q 945.85 1434.77 943.15 1435.05
  Q 942.64 1435.10 942.22 1435.38
  Q 941.33 1435.98 940.26 1435.72
  A 0.88 0.87 26.3 0 0 939.36 1436.02
  Q 938.84 1436.69 938.02 1436.52
  Q 937.51 1436.42 937.06 1436.69
  Q 936.88 1436.81 936.77 1436.99
  Q 936.42 1437.58 935.77 1437.36
  Q 934.44 1436.90 933.53 1437.88
  Q 933.24 1438.19 932.82 1438.09
  Q 931.68 1437.80 930.71 1438.46
  Q 930.28 1438.75 929.77 1438.78
  Q 929.26 1438.80 928.76 1438.85
  C 927.51 1438.97 927.01 1439.91 925.56 1439.64
  Q 925.00 1439.53 924.57 1439.92
  Q 923.65 1440.75 922.41 1440.37
  A 0.81 0.80 -60.5 0 0 921.59 1440.60
  Q 920.86 1441.41 919.75 1441.21
  Q 918.98 1441.07 918.32 1441.49
  Q 917.12 1442.26 915.58 1441.97
  A 1.32 1.32 0.0 0 0 914.50 1442.23
  Q 913.53 1442.98 912.31 1442.73
  A 1.09 1.07 27.3 0 0 911.31 1443.04
  Q 910.63 1443.77 909.63 1443.53
  Q 908.99 1443.38 908.44 1443.74
  Q 907.14 1444.62 905.45 1444.24
  Q 904.87 1444.10 904.45 1444.51
  L 904.20 1444.75
  A 1.20 1.19 -62.6 0 1 903.21 1445.07
  Q 901.39 1444.82 899.87 1445.65
  Q 899.31 1445.96 898.69 1445.86
  Q 897.30 1445.64 896.21 1446.38
  Q 895.64 1446.77 894.96 1446.65
  Q 893.94 1446.48 893.20 1447.12
  Q 892.79 1447.47 892.26 1447.42
  Q 890.66 1447.25 889.18 1447.95
  Q 888.82 1448.11 888.42 1448.12
  Q 886.92 1448.16 884.80 1448.58
  Q 857.31 1454.03 828.86 1457.21
  Q 819.59 1458.24 815.64 1458.49
  Q 814.47 1458.56 813.44 1458.89
  C 811.36 1459.56 808.76 1458.78 806.68 1459.32
  Q 804.72 1459.84 802.97 1459.87
  Q 800.01 1459.93 796.99 1459.88
  Q 796.45 1459.87 796.03 1460.21
  Q 795.85 1460.36 795.65 1460.47
  Q 795.27 1460.69 794.83 1460.69
  Q 790.54 1460.70 786.05 1460.66
  Q 785.74 1460.65 785.47 1460.78
  Q 785.21 1460.90 784.98 1461.11
  Q 784.58 1461.47 784.04 1461.47
  L 770.83 1461.46
  Q 770.63 1461.46 770.51 1461.60
  L 770.27 1461.88
  A 0.95 0.92 -67.3 0 1 769.53 1462.20
  Q 756.22 1461.71 743.21 1463.00
  L 725.42 1463.00
  Q 721.76 1462.92 718.13 1462.60
  Q 713.86 1462.22 710.86 1462.23
  Q 703.50 1462.25 696.12 1462.22
  Q 695.70 1462.22 695.52 1461.85
  Q 695.44 1461.70 695.31 1461.62
  Q 695.01 1461.45 694.66 1461.45
  Q 688.71 1461.47 682.98 1461.47
  Q 682.56 1461.47 682.30 1461.14
  Q 682.20 1461.01 682.05 1460.92
  Q 681.76 1460.71 681.39 1460.70
  Q 677.14 1460.64 672.99 1460.73
  A 0.98 0.96 67.3 0 1 672.26 1460.42
  L 672.03 1460.18
  Q 671.72 1459.85 671.27 1459.86
  Q 667.87 1459.88 664.39 1459.93
  Q 663.68 1459.94 663.12 1459.61
  C 661.16 1458.48 655.88 1459.78 654.87 1458.78
  A 1.14 1.11 68.3 0 0 654.13 1458.45
  Q 651.03 1458.33 647.50 1457.95
  Q 619.61 1454.93 589.45 1448.91
  Q 585.30 1448.08 580.84 1447.28
  Q 580.49 1447.22 580.20 1447.01
  C 579.15 1446.27 577.34 1446.90 575.86 1446.02
  Q 575.47 1445.78 575.02 1445.85
  Q 573.82 1446.04 572.88 1445.31
  Q 572.50 1445.02 572.01 1445.03
  L 570.28 1445.07
  A 1.42 1.38 -25.2 0 1 569.32 1444.74
  Q 568.40 1443.97 567.19 1444.33
  Q 566.73 1444.47 566.41 1444.12
  Q 565.48 1443.09 564.08 1443.60
  Q 563.68 1443.75 563.41 1443.42
  Q 562.59 1442.42 561.31 1442.79
  Q 560.73 1442.95 560.27 1442.56
  C 558.69 1441.22 557.09 1442.81 555.74 1441.34
  A 0.79 0.78 58.5 0 0 554.88 1441.13
  Q 553.57 1441.61 552.71 1440.59
  Q 552.30 1440.11 551.72 1440.36
  Q 550.93 1440.70 550.24 1440.25
  Q 549.61 1439.85 548.89 1439.65
  Q 545.96 1438.85 543.38 1438.16
  Q 542.77 1438.00 542.14 1438.03
  Q 541.55 1438.05 541.13 1437.61
  A 1.23 1.23 0.0 0 0 539.84 1437.28
  Q 538.86 1437.60 538.14 1436.85
  Q 537.74 1436.44 537.17 1436.53
  Q 536.21 1436.68 535.57 1435.95
  A 0.79 0.78 -29.9 0 0 534.71 1435.72
  Q 533.92 1435.99 533.31 1435.67
  Q 530.84 1434.39 528.09 1434.15
  Q 527.59 1434.10 527.22 1433.77
  Q 526.60 1433.21 525.78 1433.43
  Q 525.27 1433.56 524.98 1433.12
  Q 524.51 1432.41 523.67 1432.58
  Q 523.07 1432.71 522.49 1432.51
  L 516.40 1430.38
  Q 515.92 1430.22 515.43 1430.33
  Q 514.88 1430.46 514.43 1430.16
  Q 513.92 1429.80 513.33 1429.62
  Q 510.24 1428.67 507.35 1427.74
  Q 507.08 1427.66 506.89 1427.47
  Q 506.80 1427.38 506.70 1427.29
  A 0.99 0.98 55.7 0 0 505.74 1427.10
  Q 505.23 1427.29 504.83 1426.92
  Q 504.57 1426.69 504.25 1426.59
  Q 497.78 1424.59 495.19 1423.59
  Q 494.45 1423.31 493.74 1423.27
  Q 493.27 1423.24 492.97 1422.88
  Q 492.56 1422.39 491.89 1422.44
  Q 491.42 1422.48 490.98 1422.30
  L 483.83 1419.48
  Q 483.60 1419.39 483.35 1419.41
  L 482.82 1419.45
  Q 482.39 1419.48 482.18 1419.10
  Q 481.87 1418.56 481.27 1418.60
  Q 480.75 1418.64 480.26 1418.44
  C 478.83 1417.86 477.32 1417.60 476.02 1416.71
  Q 475.28 1416.20 474.38 1416.18
  Q 473.84 1416.16 473.38 1415.89
  C 472.31 1415.27 471.56 1414.84 470.31 1414.54
  Q 468.20 1414.04 466.41 1413.05
  C 464.84 1412.17 463.37 1412.33 461.88 1411.23
  Q 461.51 1410.95 461.05 1410.88
  Q 459.39 1410.61 457.99 1409.62
  Q 457.49 1409.26 456.88 1409.23
  Q 455.97 1409.19 455.21 1408.72
  Q 454.01 1407.97 452.68 1407.61
  Q 451.26 1407.22 449.85 1406.40
  Q 448.69 1405.71 447.17 1405.26
  Q 445.01 1404.62 443.09 1403.32
  A 1.84 1.82 -25.4 0 0 442.23 1403.02
  Q 441.46 1402.95 440.81 1402.63
  Q 438.32 1401.41 435.94 1400.21
  Q 435.49 1399.99 435.00 1399.94
  Q 434.61 1399.91 434.26 1399.74
  Q 431.51 1398.39 428.78 1397.01
  Q 428.36 1396.79 427.89 1396.80
  Q 427.60 1396.81 427.34 1396.68
  Q 420.51 1393.26 413.67 1389.83
  Q 413.45 1389.72 413.20 1389.75
  Q 412.82 1389.79 412.47 1389.62
  Q 405.13 1385.99 396.64 1381.47
  Q 395.81 1381.02 394.98 1380.58
  Q 390.33 1378.09 385.31 1375.67
  C 384.54 1375.30 384.15 1374.66 383.39 1374.28
  Q 376.07 1370.58 368.66 1366.34
  Q 367.29 1365.56 365.98 1364.76
  Q 358.12 1359.99 349.75 1355.00
  Q 346.79 1353.24 343.85 1351.36
  Q 340.96 1349.52 338.03 1347.62
  Q 330.43 1342.70 323.19 1337.81
  Q 292.42 1316.98 269.09 1297.35
  Q 267.27 1295.82 265.41 1294.49
  C 263.16 1292.88 261.51 1290.63 259.21 1289.27
  C 257.68 1288.36 256.91 1286.91 255.42 1285.95
  C 252.97 1284.36 250.93 1282.08 248.93 1279.98
  C 248.32 1279.34 247.47 1279.30 246.95 1278.80
  Q 244.36 1276.33 241.85 1273.64
  C 241.34 1273.09 240.24 1272.88 239.50 1272.15
  Q 235.30 1267.95 231.08 1263.71
  C 230.36 1262.99 229.50 1262.78 228.75 1262.04
  Q 216.27 1249.82 201.45 1234.86
  C 200.79 1234.20 200.94 1233.54 200.19 1232.80
  Q 195.48 1228.16 191.10 1223.74
  Q 190.84 1223.47 190.78 1223.11
  Q 190.75 1222.93 190.70 1222.76
  Q 190.62 1222.47 190.34 1222.20
  Q 187.64 1219.51 184.93 1216.82
  A 1.44 1.35 -76.8 0 1 184.55 1216.16
  Q 184.51 1215.98 184.45 1215.80
  Q 184.34 1215.46 184.08 1215.19
  Q 182.00 1213.02 179.76 1210.93
  C 179.48 1210.66 179.34 1210.35 179.25 1209.98
  Q 179.12 1209.47 178.75 1209.10
  Q 176.71 1207.02 174.76 1205.05
  Q 174.60 1204.90 174.52 1204.70
  Q 174.45 1204.50 174.39 1204.30
  Q 174.30 1203.99 174.08 1203.75
  Q 171.24 1200.62 168.47 1197.26
  Q 127.21 1147.20 95.80 1091.83
  Q 91.74 1084.68 87.92 1077.26
  C 87.45 1076.36 86.84 1075.93 86.43 1075.09
  Q 82.70 1067.45 78.83 1059.88
  Q 78.66 1059.55 78.72 1059.19
  Q 78.77 1058.90 78.70 1058.76
  Q 73.96 1049.33 69.65 1040.68
  Q 68.34 1038.05 67.18 1035.23
  Q 66.07 1032.52 64.66 1029.84
  C 63.33 1027.31 62.54 1024.46 61.01 1021.94
  Q 60.76 1021.52 60.78 1021.02
  Q 60.80 1020.48 60.68 1020.29
  Q 58.81 1017.09 58.44 1015.75
  Q 57.87 1013.66 56.88 1011.99
  Q 56.27 1010.95 55.99 1009.80
  Q 55.66 1008.46 54.85 1007.33
  Q 54.45 1006.78 54.48 1006.08
  A 1.74 1.73 -59.3 0 0 54.23 1005.08
  Q 52.49 1002.11 51.62 998.99
  Q 51.48 998.47 51.08 998.11
  Q 50.65 997.72 50.63 997.18
  Q 50.61 996.48 50.36 995.85
  Q 48.30 990.54 46.10 985.02
  Q 46.00 984.76 46.00 984.48
  Q 46.02 983.93 45.73 983.45
  Q 44.15 980.76 43.49 977.30
  Q 43.45 977.08 43.25 976.97
  Q 43.12 976.89 43.04 976.77
  Q 42.89 976.56 42.88 976.30
  Q 42.82 974.98 42.13 973.84
  Q 41.48 972.76 41.12 971.53
  Q 40.76 970.30 40.39 968.98
  Q 40.25 968.50 39.95 968.12
  Q 39.54 967.62 39.76 966.98
  A 0.76 0.73 -47.3 0 0 39.75 966.49
  Q 39.66 966.27 39.44 966.16
  A 0.32 0.31 -85.6 0 1 39.28 965.97
  L 37.56 960.63
  Q 37.47 960.34 37.46 960.03
  Q 37.45 959.26 36.81 958.78
  Q 36.55 958.58 36.54 958.25
  Q 36.53 958.07 36.55 957.89
  A 0.59 0.51 -54.7 0 0 36.53 957.68
  L 34.78 952.26
  Q 34.67 951.92 34.43 951.65
  Q 34.09 951.27 34.22 950.74
  A 0.83 0.74 46.9 0 0 34.21 950.33
  L 30.47 938.43
  Q 30.34 938.02 30.38 937.58
  Q 30.44 936.86 29.93 936.38
  A 1.17 1.15 -60.1 0 1 29.63 935.23
  Q 29.79 934.69 29.39 934.30
  Q 29.03 933.96 28.89 933.49
  Q 28.31 931.53 27.91 929.53
  C 27.68 928.39 26.98 927.72 27.26 926.43
  Q 27.37 925.96 27.00 925.64
  Q 26.34 925.06 26.47 924.13
  A 1.09 1.07 -64.2 0 0 26.16 923.20
  Q 25.37 922.41 25.75 921.24
  Q 25.94 920.68 25.50 920.28
  Q 24.70 919.56 24.91 918.47
  A 1.93 1.89 -53.1 0 0 24.75 917.27
  Q 23.52 914.72 23.25 912.19
  A 1.69 1.63 24.7 0 0 22.95 911.42
  C 22.24 910.47 22.78 909.89 22.55 908.91
  Q 22.47 908.53 22.13 908.34
  A 0.77 0.76 -69.6 0 1 21.77 907.54
  Q 22.06 906.11 21.28 904.99
  Q 20.92 904.48 21.03 903.87
  Q 21.25 902.61 20.41 901.80
  Q 20.11 901.51 20.22 901.10
  Q 20.54 899.83 19.78 898.88
  Q 19.46 898.48 19.46 897.97
  L 19.48 896.28
  Q 19.49 895.72 19.15 895.27
  Q 18.51 894.41 18.66 893.33
  Q 18.73 892.80 18.43 892.35
  Q 17.75 891.34 17.90 890.22
  Q 17.97 889.74 17.73 889.31
  C 16.97 887.97 17.49 886.24 16.88 885.30
  Q 16.66 884.96 16.59 884.65
  Q 8.11 845.43 4.04 805.66
  C 3.85 803.78 4.13 801.82 3.68 800.06
  C 2.98 797.33 3.05 794.74 3.12 791.95
  A 1.75 1.74 32.0 0 0 2.92 791.10
  C 1.81 788.96 2.28 783.32 2.25 780.77
  Q 2.25 780.27 1.95 779.87
  Q 1.64 779.47 1.63 778.98
  Q 1.49 773.28 1.54 767.35
  Q 1.55 767.04 1.39 766.78
  Q 1.31 766.64 1.16 766.56
  Q 0.77 766.34 0.79 765.90
  Q 1.30 752.62 0.00 739.64
  L 0.00 723.19
  Q 1.30 710.33 0.79 697.16
  A 0.80 0.78 -18.6 0 1 1.14 696.47
  Q 1.31 696.35 1.42 696.17
  Q 1.54 695.99 1.54 695.77
  Q 1.51 690.17 1.60 684.93
  C 1.61 683.79 2.16 683.10 2.21 682.03
  Q 2.41 678.12 2.30 673.59
  C 2.29 672.98 2.39 672.67 2.77 672.20
  Q 3.11 671.78 3.11 671.24
  Q 3.12 668.27 3.08 665.17
  C 3.07 664.09 3.87 663.60 3.89 662.57
  Q 3.92 659.75 3.92 656.89
  Q 3.91 656.51 4.10 656.18
  Q 4.20 656.01 4.30 655.83
  Q 4.40 655.66 4.42 655.46
  Q 6.82 631.26 9.83 614.42
  Q 10.20 612.40 10.07 610.93
  Q 10.03 610.45 10.38 610.12
  L 10.68 609.82
  Q 11.12 609.39 10.97 608.80
  Q 10.55 607.16 11.40 605.83
  Q 11.71 605.36 11.71 604.80
  L 11.70 602.48
  Q 11.70 601.96 11.98 601.52
  Q 12.72 600.39 12.48 598.94
  Q 12.36 598.24 12.73 597.63
  Q 13.60 596.19 13.20 594.30
  Q 13.08 593.73 13.41 593.26
  Q 14.35 591.92 13.97 590.02
  Q 13.87 589.51 14.24 589.14
  C 15.58 587.80 13.96 586.18 15.34 584.83
  Q 15.79 584.40 15.60 583.80
  Q 15.24 582.65 16.04 581.79
  Q 16.54 581.26 16.36 580.55
  Q 15.96 579.04 16.80 578.02
  A 1.56 1.54 -25.7 0 0 17.15 577.04
  L 17.12 575.26
  Q 17.12 574.55 17.58 574.02
  Q 18.21 573.31 17.91 572.36
  Q 17.66 571.58 18.27 571.04
  Q 19.01 570.37 18.71 569.43
  Q 18.47 568.67 18.97 568.05
  Q 19.89 566.88 19.40 565.30
  Q 19.22 564.73 19.63 564.30
  L 20.02 563.88
  A 1.18 1.16 -33.4 0 0 20.27 562.70
  Q 19.91 561.66 20.67 560.96
  Q 21.11 560.54 21.01 559.93
  Q 20.80 558.67 21.50 557.65
  Q 21.91 557.05 21.78 556.33
  Q 21.60 555.39 22.22 554.67
  Q 22.55 554.27 22.56 553.74
  L 22.56 552.51
  Q 22.57 551.94 22.97 551.54
  Q 23.42 551.08 23.35 550.48
  Q 23.29 549.98 23.41 549.47
  Q 23.89 547.47 24.80 545.65
  Q 25.03 545.19 24.91 544.69
  Q 24.64 543.56 25.44 542.84
  A 0.90 0.88 -27.0 0 0 25.73 541.98
  Q 25.52 540.92 26.00 539.98
  Q 26.48 539.06 26.73 538.01
  Q 27.74 533.89 28.94 529.35
  A 1.11 1.07 -12.9 0 1 29.32 528.77
  Q 29.83 528.37 29.64 527.77
  Q 29.43 527.08 29.96 526.59
  Q 30.48 526.09 30.37 525.36
  Q 30.28 524.75 30.48 524.17
  Q 31.11 522.37 31.73 520.66
  Q 32.38 518.86 32.86 516.80
  Q 33.42 514.44 34.22 512.23
  Q 35.04 510.01 35.77 507.75
  Q 39.19 497.06 42.99 486.56
  A 28.89 3.15 -64.6 0 0 44.15 483.22
  Q 44.54 482.02 45.06 480.96
  Q 45.52 479.99 45.88 478.98
  Q 47.36 474.83 48.80 470.70
  Q 48.94 470.29 49.02 469.85
  Q 49.11 469.37 49.41 468.98
  Q 50.44 467.61 50.63 465.98
  A 1.75 1.74 66.3 0 1 50.96 465.13
  Q 51.92 463.80 52.15 462.20
  Q 52.22 461.69 52.51 461.27
  C 53.57 459.72 53.65 458.12 54.54 456.49
  Q 55.33 455.03 55.87 453.47
  Q 56.39 452.01 57.03 450.79
  Q 57.78 449.39 58.21 447.96
  C 58.86 445.84 60.13 444.29 60.68 442.22
  Q 60.99 441.02 61.58 439.95
  Q 62.51 438.27 63.18 436.42
  C 64.05 434.04 65.46 431.89 66.38 429.52
  Q 67.33 427.07 67.83 426.05
  Q 73.20 415.08 78.50 404.68
  Q 78.73 404.22 78.70 403.70
  Q 78.64 402.81 79.44 402.33
  Q 79.94 402.03 80.17 401.50
  Q 83.82 393.40 88.28 385.54
  Q 89.19 383.93 89.97 382.33
  Q 90.80 380.63 91.70 379.15
  Q 93.02 376.97 94.15 374.77
  Q 95.32 372.48 96.56 370.36
  Q 102.94 359.47 109.44 348.65
  Q 110.01 347.70 110.48 346.76
  C 110.97 345.76 111.72 345.21 112.29 344.23
  Q 114.24 340.84 116.25 337.78
  Q 124.16 325.75 131.63 314.83
  Q 134.83 310.15 138.09 305.57
  Q 148.34 291.14 159.38 277.37
  Q 163.18 272.64 167.23 267.49
  Q 168.69 265.64 170.27 264.01
  Q 171.48 262.77 172.36 261.38
  C 173.31 259.87 175.73 258.40 176.16 256.80
  Q 176.29 256.30 176.66 255.95
  Q 178.73 253.99 180.77 251.89
  C 181.30 251.35 181.25 250.80 181.73 250.25
  Q 183.62 248.15 185.84 246.13
  C 186.79 245.27 186.83 244.23 187.72 243.37
  Q 191.00 240.23 194.07 237.01
  Q 194.53 236.53 194.75 235.92
  Q 194.93 235.42 195.30 235.05
  Q 200.78 229.56 206.36 224.02
  C 207.03 223.36 207.08 222.46 207.80 221.75
  Q 215.87 213.72 223.37 206.21
  Q 224.16 205.42 225.27 204.84
  Q 225.84 204.55 226.24 204.13
  Q 232.35 197.75 237.69 192.96
  Q 238.28 192.43 238.90 191.91
  Q 241.99 189.35 245.27 185.89
  C 245.79 185.35 246.46 185.42 247.05 184.84
  Q 249.61 182.33 251.97 179.87
  Q 252.30 179.52 252.77 179.38
  Q 253.68 179.10 254.36 178.36
  Q 256.12 176.47 257.98 174.89
  Q 291.76 146.20 329.82 120.70
  Q 332.25 119.06 334.62 117.65
  Q 337.02 116.23 339.53 114.59
  Q 349.19 108.27 361.27 100.98
  Q 363.11 99.87 364.43 99.40
  C 365.82 98.91 366.72 97.82 367.87 97.21
  Q 372.70 94.66 377.38 91.86
  C 380.05 90.26 382.96 89.19 385.51 87.49
  Q 387.03 86.47 388.66 85.66
  Q 393.03 83.51 397.17 81.42
  Q 400.69 79.66 404.57 77.36
  Q 407.02 75.90 409.66 74.84
  Q 412.33 73.78 414.82 72.56
  Q 420.22 69.92 425.27 67.36
  C 426.04 66.97 426.75 66.96 427.57 66.56
  Q 434.39 63.24 440.92 60.46
  Q 443.27 59.46 445.21 58.49
  Q 446.37 57.90 447.67 57.61
  C 448.96 57.32 449.81 56.54 451.08 56.16
  Q 453.35 55.47 455.55 54.05
  Q 455.88 53.84 456.28 53.79
  Q 456.48 53.77 456.68 53.77
  A 1.40 1.37 33.4 0 0 457.29 53.65
  Q 463.84 50.72 470.15 48.50
  Q 471.75 47.94 473.36 47.23
  Q 474.91 46.55 476.56 46.18
  Q 477.84 45.90 478.94 45.16
  Q 480.05 44.41 481.28 44.38
  Q 481.80 44.37 482.12 43.95
  Q 482.41 43.58 482.88 43.61
  Q 483.27 43.63 483.67 43.52
  Q 485.36 43.01 486.78 42.36
  Q 488.24 41.68 489.77 41.17
  Q 497.24 38.72 504.69 36.22
  Q 505.09 35.71 505.63 35.83
  Q 506.03 35.92 506.39 35.74
  Q 508.12 34.90 510.11 34.41
  C 511.40 34.09 512.37 33.23 513.72 33.53
  Q 514.34 33.67 514.70 33.14
  Q 514.79 32.99 514.93 32.89
  Q 515.24 32.67 515.61 32.76
  Q 516.30 32.94 516.85 32.49
  Q 517.23 32.18 517.72 32.06
  Q 520.06 31.48 522.25 30.54
  C 522.91 30.26 523.19 30.31 523.87 30.39
  Q 524.38 30.45 524.73 30.08
  Q 525.34 29.44 526.24 29.59
  Q 526.79 29.68 527.16 29.28
  Q 527.72 28.66 528.61 28.78
  Q 529.21 28.86 529.77 28.66
  L 533.53 27.34
  A 1.66 1.58 -49.3 0 1 534.32 27.26
  Q 535.29 27.41 535.87 26.79
  A 0.99 0.99 0.0 0 1 536.77 26.50
  Q 537.61 26.67 538.18 26.05
  Q 538.54 25.66 539.06 25.69
  L 540.15 25.75
  Q 540.68 25.78 541.08 25.44
  C 541.83 24.78 542.72 25.01 543.68 24.76
  Q 546.75 24.00 549.94 22.90
  C 551.24 22.45 552.82 22.86 553.80 22.07
  Q 554.24 21.71 554.80 21.80
  Q 556.12 22.01 557.10 21.24
  Q 557.54 20.90 558.09 21.01
  Q 559.37 21.29 560.20 20.50
  Q 560.53 20.18 560.98 20.25
  C 562.15 20.43 562.70 19.92 563.72 19.68
  Q 607.50 9.27 652.25 4.65
  Q 653.97 4.48 655.74 4.14
  C 657.93 3.72 661.23 4.48 663.07 3.38
  Q 663.53 3.11 664.05 3.11
  L 671.10 3.12
  A 1.46 1.42 27.4 0 0 671.90 2.88
  C 672.44 2.50 672.65 2.35 673.33 2.37
  Q 678.24 2.48 682.97 1.90
  Q 687.68 1.33 694.67 1.52
  C 695.16 1.54 695.99 1.33 696.38 1.04
  A 1.32 1.26 26.2 0 1 697.18 0.79
  Q 710.02 1.30 722.54 0.00
  Z"
/>
</svg>
